HIERARCHY
ROOT Hips
{
 OFFSET 0.000000 0.000000 0.000000
 CHANNELS 6 Xposition Yposition Zposition Yrotation Xrotation Zrotation
 JOINT Chest
 {
  OFFSET 0.000000 9.585900 0.002600
  CHANNELS 3 Yrotation Xrotation Zrotation
  JOINT Chest2
  {
   OFFSET 0.000000 9.601200 -0.005300
   CHANNELS 3 Yrotation Xrotation Zrotation
   JOINT Chest3
   {
    OFFSET 0.000000 9.561800 0.000000
    CHANNELS 3 Yrotation Xrotation Zrotation
    JOINT Chest4
    {
     OFFSET 0.000000 9.552100 0.000000
     CHANNELS 3 Yrotation Xrotation Zrotation
     JOINT Neck
     {
      OFFSET 0.000000 14.453000 0.000000
      CHANNELS 3 Yrotation Xrotation Zrotation
      JOINT Head
      {
       OFFSET 0.000000 8.936500 -0.011300
       CHANNELS 3 Yrotation Xrotation Zrotation
       End Site
       {
        OFFSET 0.000000 17.073600 -0.006000
       }
      }
     }
     JOINT RightCollar
     {
      OFFSET -2.921100 9.558500 0.000000
      CHANNELS 3 Yrotation Xrotation Zrotation
      JOINT RightShoulder
      {
       OFFSET -13.519700 0.000000 0.000000
       CHANNELS 3 Yrotation Xrotation Zrotation
       JOINT RightElbow
       {
        OFFSET 0.000000 -29.696600 0.000000
        CHANNELS 3 Yrotation Xrotation Zrotation
        JOINT RightWrist
        {
         OFFSET 0.000000 -24.004700 0.000000
         CHANNELS 3 Yrotation Xrotation Zrotation
         End Site
         {
          OFFSET 0.000000 -17.728500 0.000000
         }
        }
       }
      }
     }
     JOINT LeftCollar
     {
      OFFSET 2.921100 9.558500 0.000000
      CHANNELS 3 Yrotation Xrotation Zrotation
      JOINT LeftShoulder
      {
       OFFSET 13.519700 0.000000 0.000000
       CHANNELS 3 Yrotation Xrotation Zrotation
       JOINT LeftElbow
       {
        OFFSET 0.000000 -29.696600 0.000000
        CHANNELS 3 Yrotation Xrotation Zrotation
        JOINT LeftWrist
        {
         OFFSET 0.000000 -24.004700 0.000000
         CHANNELS 3 Yrotation Xrotation Zrotation
         End Site
         {
          OFFSET 0.000000 -17.728500 0.000000
         }
        }
       }
      }
     }
    }
   }
  }
 }
 JOINT RightHip
 {
  OFFSET -7.771700 -0.012900 -0.001300
  CHANNELS 3 Yrotation Xrotation Zrotation
  JOINT RightKnee
  {
   OFFSET 0.000000 -40.869800 0.001200
   CHANNELS 3 Yrotation Xrotation Zrotation
   JOINT RightAnkle
   {
    OFFSET 0.000000 -39.717900 0.002100
    CHANNELS 3 Yrotation Xrotation Zrotation
    JOINT RightToe
    {
     OFFSET 0.000000 -4.965400 11.033500
     CHANNELS 3 Yrotation Xrotation Zrotation
     End Site
     {
      OFFSET 0.000000 -1.423100 5.872300
     }
    }
   }
  }
 }
 JOINT LeftHip
 {
  OFFSET 7.771700 -0.012900 -0.001300
  CHANNELS 3 Yrotation Xrotation Zrotation
  JOINT LeftKnee
  {
   OFFSET 0.000000 -40.869800 0.001200
   CHANNELS 3 Yrotation Xrotation Zrotation
   JOINT LeftAnkle
   {
    OFFSET 0.000000 -39.717900 0.002100
    CHANNELS 3 Yrotation Xrotation Zrotation
    JOINT LeftToe
    {
     OFFSET 0.000000 -4.965400 11.033500
     CHANNELS 3 Yrotation Xrotation Zrotation
     End Site
     {
      OFFSET 0.000000 -1.423100 5.872300
     }
    }
   }
  }
 }
}
MOTION
Frames: 8
Frame Time: 0.008333
0.000000 85.388000 0.000000 0.000000 -5.767877 0.000000 0.000000 11.653817 0.000000 0.000000 -5.885947 0.000000 0.000000 -0.000000 0.000000 0.000000 -0.000000 0.000000 0.000000 12.528835 0.000000 0.000000 0.711642 0.000000 0.000000 -0.000000 0.000000 0.000000 0.000000 -90.000000 0.000000 -2.309062 0.000000 0.000000 2.309062 0.000000 0.000000 -0.000000 0.000000 0.000000 -0.000000 90.000000 0.000000 -2.309062 0.000000 0.000000 2.309062 0.000000 0.000000 8.520406 0.000000 0.000000 1.905762 0.000000 -0.000000 -4.658285 0.000000 0.000000 -0.000000 0.000000 0.000000 8.520406 0.000000 0.000000 1.905762 0.000000 -0.000000 -4.658285 0.000000 0.000000 -0.000000 0.000000
-2.691921 52.232233 34.064621 171.086832 -34.541774 -1.660433 5.206401 26.636367 2.878397 0.741521 4.636883 0.562577 1.190244 7.333531 0.918946 3.968493 21.712500 3.246786 0.598685 13.881692 -0.677479 1.395502 -9.957778 -1.473024 -3.825678 -3.808070 -4.923889 6.120770 -32.468633 -2.923553 124.015866 -78.878857 -119.842800 -0.185088 -4.514735 7.519754 -8.643199 -2.277236 1.173230 1.282709 -33.234900 10.669354 138.466791 -81.074955 -145.070354 2.660747 -6.766229 2.676053 -3.870637 -46.897384 3.473972 -139.596618 84.977840 -135.467679 -0.368521 -10.932947 -2.585901 0.610520 -1.143518 0.300359 -2.202330 -43.146906 3.936729 76.350971 81.681305 67.184194 -4.171308 -11.982259 7.711332 0.456339 1.589469 0.174523
-2.691969 52.232865 34.042592 171.049547 -34.578148 -1.661093 5.293884 26.674088 2.949081 0.712089 4.633052 0.547232 1.188883 7.332778 0.921138 4.004159 21.712521 3.303523 0.567131 13.902170 -0.694369 1.375812 -9.964987 -1.487459 -3.849303 -3.748229 -4.947633 6.079637 -32.396567 -2.925934 124.301827 -78.933216 -120.044004 -0.168833 -4.510691 7.443530 -8.656877 -2.257452 1.156627 1.297225 -33.140034 10.648203 138.458989 -81.063348 -145.106214 2.600491 -6.749364 2.631586 -3.818927 -46.863351 3.493237 -139.674035 84.952597 -135.540143 -0.376425 -10.938969 -2.561709 0.608141 -1.153099 0.297333 -2.191954 -43.114601 3.957667 76.455310 81.772963 67.281472 -4.078988 -11.990906 7.746727 0.423519 1.565030 0.154771
-2.689710 52.232083 34.019286 171.026787 -34.607733 -1.691265 5.353248 26.698101 3.016939 0.714359 4.635349 0.552183 1.178374 7.331853 0.917783 4.000017 21.711853 3.310445 0.578860 13.923573 -0.670479 1.361502 -9.927285 -1.468305 -3.848514 -3.695229 -4.932604 6.063321 -32.306500 -2.936323 124.598158 -79.005987 -120.266504 -0.176218 -4.494346 7.398383 -8.635326 -2.244967 1.172318 1.310052 -33.025728 10.618941 138.925935 -81.084976 -145.590676 2.502934 -6.720307 2.562481 -3.795366 -46.835284 3.541029 -139.833759 84.925208 -135.693248 -0.353925 -10.955766 -2.531067 0.573900 -1.150007 0.281440 -2.214597 -43.088236 4.005609 76.541436 81.848996 67.360573 -3.962400 -11.976252 7.775840 0.353173 1.523904 0.135612
-2.693439 52.228929 33.995395 171.067224 -34.620707 -1.729373 5.342363 26.708943 3.050479 0.715135 4.635466 0.555205 1.183532 7.335340 0.937638 3.973696 21.710897 3.293862 0.600997 13.965424 -0.612120 1.361079 -9.857871 -1.431753 -3.843448 -3.648686 -4.917245 6.061937 -32.278309 -2.961548 124.581501 -79.132147 -120.186086 -0.197939 -4.461511 7.396085 -8.625234 -2.243635 1.174132 1.330792 -32.895599 10.595460 139.873545 -81.139893 -146.536771 2.359764 -6.680808 2.465056 -3.791045 -46.824582 3.546647 -140.110714 84.904526 -135.964039 -0.370888 -10.952248 -2.513577 0.568153 -1.170749 0.288407 -2.270927 -43.083558 4.012157 76.667249 81.917935 67.478512 -3.880363 -11.986469 7.796017 0.318111 1.513773 0.129907
-2.699251 52.223795 33.972211 171.093442 -34.621682 -1.754862 5.338243 26.706205 3.076818 0.714419 4.639937 0.557571 1.176224 7.335027 0.939228 3.970413 21.715380 3.307379 0.605701 13.981381 -0.600836 1.370300 -9.825906 -1.419850 -3.837720 -3.611020 -4.916925 6.062667 -32.247306 -2.982714 124.473938 -79.252005 -120.021133 -0.223047 -4.418196 7.436386 -8.616158 -2.252711 1.165273 1.356510 -32.753935 10.560393 141.273803 -81.213732 -147.922737 2.169635 -6.630655 2.337846 -3.769781 -46.826777 3.544618 -140.398942 84.884653 -136.242846 -0.398059 -10.965296 -2.494878 0.579502 -1.168119 0.290332 -2.331898 -43.102571 4.014885 76.908835 81.975731 67.704484 -3.793203 -11.963676 7.828757 0.279832 1.471824 0.107039
-2.706050 52.218516 33.948319 171.106734 -34.628415 -1.772896 5.338981 26.709931 3.096206 0.727075 4.636651 0.576467 1.163130 7.340284 0.932710 3.961410 21.723027 3.343185 0.610443 13.994416 -0.617111 1.385545 -9.794603 -1.410572 -3.828718 -3.586420 -4.931625 6.011403 -31.996414 -2.961652 125.134744 -79.214908 -120.600046 -0.240793 -4.371742 7.508940 -8.559655 -2.310546 1.161663 1.350847 -32.555028 10.480058 143.092860 -81.292874 -149.709921 1.925249 -6.565479 2.183647 -3.735915 -46.824831 3.542271 -140.612504 84.858397 -136.448491 -0.417186 -10.977519 -2.474403 0.579458 -1.177263 0.298713 -2.363880 -43.105313 4.022092 77.045817 82.047713 67.831537 -3.758770 -11.960531 7.877269 0.285298 1.454656 0.086113
-2.714314 52.212448 33.925440 171.114907 -34.632716 -1.786053 5.343155 26.710876 3.112643 0.732448 4.630753 0.581911 1.163127 7.342640 0.941754 3.952473 21.724694 3.354371 0.623373 14.013570 -0.610049 1.406828 -9.758971 -1.401975 -3.804166 -3.539540 -4.898901 5.950678 -31.808376 -2.985530 125.467941 -79.195184 -120.839000 -0.245610 -4.327680 7.598353 -8.537314 -2.348260 1.156951 1.343180 -32.342407 10.426071 145.315649 -81.369876 -151.881062 1.619967 -6.475511 2.006737 -3.694158 -46.825812 3.537756 -140.808931 84.831875 -136.639269 -0.436819 -10.996183 -2.448825 0.585605 -1.172159 0.301418 -2.392101 -43.108689 4.017194 77.185100 82.109151 67.958566 -3.683777 -11.973852 7.901008 0.250531 1.448322 0.083642
